<svg width="44" height="44" viewBox="0 0 44 44" fill="none" xmlns="http://www.w3.org/2000/svg">
<circle cx="22" cy="22" r="22" fill="#4338CA"/>
<path d="M23 3L32.5263 10.5H13.4737L23 3Z" fill="white"/>
<path d="M24.1807 13.2734V17.624H21.9102V13.2734H24.1807ZM23.9023 37.1943V41.1201H21.6465V37.1943H23.9023ZM25.8066 32.4189C25.8066 31.8623 25.6992 31.3789 25.4844 30.9688C25.2793 30.5586 24.9326 30.1924 24.4443 29.8701C23.9658 29.5479 23.3213 29.2402 22.5107 28.9473C21.251 28.4883 20.1475 27.9854 19.2002 27.4385C18.2529 26.8818 17.5156 26.1934 16.9883 25.373C16.4707 24.5527 16.2119 23.5176 16.2119 22.2676C16.2119 21.0664 16.4902 20.0264 17.0469 19.1475C17.6133 18.2588 18.3994 17.5752 19.4053 17.0967C20.4111 16.6084 21.5781 16.3643 22.9062 16.3643C23.9414 16.3643 24.8691 16.5205 25.6895 16.833C26.5195 17.1357 27.2275 17.5801 27.8135 18.166C28.4092 18.752 28.8633 19.4746 29.1758 20.334C29.498 21.1836 29.6592 22.1553 29.6592 23.249H25.792C25.792 22.6436 25.7236 22.1064 25.5869 21.6377C25.4502 21.1689 25.2549 20.7734 25.001 20.4512C24.7471 20.1191 24.4395 19.8701 24.0781 19.7041C23.7266 19.5381 23.3262 19.4551 22.877 19.4551C22.2324 19.4551 21.7002 19.5771 21.2803 19.8213C20.8701 20.0654 20.5674 20.3975 20.3721 20.8174C20.1865 21.2373 20.0938 21.7207 20.0938 22.2676C20.0938 22.7949 20.1914 23.2588 20.3867 23.6592C20.5918 24.0498 20.9336 24.4062 21.4121 24.7285C21.9004 25.0508 22.5693 25.3779 23.4189 25.71C24.6885 26.1787 25.792 26.6963 26.7295 27.2627C27.667 27.8193 28.3945 28.5029 28.9121 29.3135C29.4297 30.124 29.6885 31.1494 29.6885 32.3896C29.6885 33.6592 29.3955 34.7334 28.8096 35.6123C28.2334 36.4912 27.4229 37.1602 26.3779 37.6191C25.333 38.0781 24.1172 38.3076 22.7305 38.3076C21.8418 38.3076 20.9629 38.1904 20.0938 37.9561C19.2246 37.7217 18.4336 37.3408 17.7207 36.8135C17.0176 36.2764 16.4561 35.5684 16.0361 34.6895C15.6162 33.8008 15.4062 32.7119 15.4062 31.4229H19.2881C19.2881 32.165 19.3857 32.7803 19.5811 33.2686C19.7764 33.7568 20.04 34.1475 20.3721 34.4404C20.7041 34.7236 21.0752 34.9238 21.4854 35.041C21.8955 35.1582 22.3105 35.2168 22.7305 35.2168C23.4141 35.2168 23.9805 35.0996 24.4297 34.8652C24.8887 34.6309 25.2305 34.3037 25.4551 33.8838C25.6895 33.4541 25.8066 32.9658 25.8066 32.4189Z" fill="white"/>
</svg>
